<mxfile host="app.diagrams.net" modified="2023-06-05T06:06:15.486Z" agent="Mozilla/5.0 (Windows NT 10.0; Win64; x64) AppleWebKit/537.36 (KHTML, like Gecko) Chrome/113.0.0.0 Safari/537.36" etag="Kc5pN1OlIPFaVm6dgY0e" version="21.3.7" type="device">
  <diagram name="Страница 1" id="JAnuW7vz-bibfsBObyw5">
    <mxGraphModel dx="1050" dy="581" grid="1" gridSize="10" guides="1" tooltips="1" connect="1" arrows="1" fold="1" page="1" pageScale="1" pageWidth="827" pageHeight="1169" math="0" shadow="0">
      <root>
        <mxCell id="0" />
        <mxCell id="1" parent="0" />
        <mxCell id="0WIL8h1w6J6NO6AQZgoV-8" style="edgeStyle=orthogonalEdgeStyle;rounded=0;orthogonalLoop=1;jettySize=auto;html=1;exitX=0.5;exitY=1;exitDx=0;exitDy=0;entryX=0.5;entryY=0;entryDx=0;entryDy=0;" edge="1" parent="1" source="0WIL8h1w6J6NO6AQZgoV-3" target="0WIL8h1w6J6NO6AQZgoV-5">
          <mxGeometry relative="1" as="geometry" />
        </mxCell>
        <mxCell id="0WIL8h1w6J6NO6AQZgoV-3" value="String[] arraysRow =&amp;nbsp;[“Hello”, “2”, “world”, “:-)”]&lt;br&gt;size = arraysRow.length&lt;br&gt;String[] newArraysRow" style="rounded=0;whiteSpace=wrap;html=1;" vertex="1" parent="1">
          <mxGeometry x="265" y="180" width="270" height="60" as="geometry" />
        </mxCell>
        <mxCell id="0WIL8h1w6J6NO6AQZgoV-12" style="edgeStyle=orthogonalEdgeStyle;rounded=0;orthogonalLoop=1;jettySize=auto;html=1;exitX=0.5;exitY=1;exitDx=0;exitDy=0;entryX=0.5;entryY=0;entryDx=0;entryDy=0;" edge="1" parent="1" source="0WIL8h1w6J6NO6AQZgoV-4" target="0WIL8h1w6J6NO6AQZgoV-11">
          <mxGeometry relative="1" as="geometry" />
        </mxCell>
        <mxCell id="0WIL8h1w6J6NO6AQZgoV-13" value="yes" style="edgeStyle=orthogonalEdgeStyle;rounded=0;orthogonalLoop=1;jettySize=auto;html=1;" edge="1" parent="1" source="0WIL8h1w6J6NO6AQZgoV-4" target="0WIL8h1w6J6NO6AQZgoV-11">
          <mxGeometry relative="1" as="geometry" />
        </mxCell>
        <mxCell id="0WIL8h1w6J6NO6AQZgoV-14" value="no" style="edgeStyle=orthogonalEdgeStyle;rounded=0;orthogonalLoop=1;jettySize=auto;html=1;exitX=0;exitY=0.5;exitDx=0;exitDy=0;entryX=0;entryY=0.5;entryDx=0;entryDy=0;" edge="1" parent="1" source="0WIL8h1w6J6NO6AQZgoV-4" target="0WIL8h1w6J6NO6AQZgoV-5">
          <mxGeometry x="-0.8022" relative="1" as="geometry">
            <Array as="points">
              <mxPoint x="280" y="435" />
              <mxPoint x="280" y="310" />
            </Array>
            <mxPoint as="offset" />
          </mxGeometry>
        </mxCell>
        <mxCell id="0WIL8h1w6J6NO6AQZgoV-4" value="arraysRow[i] &amp;lt;= 3" style="rhombus;whiteSpace=wrap;html=1;" vertex="1" parent="1">
          <mxGeometry x="332.5" y="380" width="135" height="110" as="geometry" />
        </mxCell>
        <mxCell id="0WIL8h1w6J6NO6AQZgoV-9" value="yes" style="edgeStyle=orthogonalEdgeStyle;rounded=0;orthogonalLoop=1;jettySize=auto;html=1;exitX=0.5;exitY=1;exitDx=0;exitDy=0;entryX=0.5;entryY=0;entryDx=0;entryDy=0;" edge="1" parent="1" source="0WIL8h1w6J6NO6AQZgoV-5" target="0WIL8h1w6J6NO6AQZgoV-4">
          <mxGeometry relative="1" as="geometry" />
        </mxCell>
        <mxCell id="0WIL8h1w6J6NO6AQZgoV-18" style="edgeStyle=orthogonalEdgeStyle;rounded=0;orthogonalLoop=1;jettySize=auto;html=1;exitX=1;exitY=0.5;exitDx=0;exitDy=0;entryX=-0.027;entryY=0.391;entryDx=0;entryDy=0;entryPerimeter=0;" edge="1" parent="1" source="0WIL8h1w6J6NO6AQZgoV-5" target="0WIL8h1w6J6NO6AQZgoV-17">
          <mxGeometry relative="1" as="geometry" />
        </mxCell>
        <mxCell id="0WIL8h1w6J6NO6AQZgoV-5" value="&lt;span style=&quot;color: rgb(0, 0, 0); font-family: Helvetica; font-size: 12px; font-style: normal; font-variant-ligatures: normal; font-variant-caps: normal; font-weight: 400; letter-spacing: normal; orphans: 2; text-align: center; text-indent: 0px; text-transform: none; widows: 2; word-spacing: 0px; -webkit-text-stroke-width: 0px; background-color: rgb(251, 251, 251); text-decoration-thickness: initial; text-decoration-style: initial; text-decoration-color: initial; float: none; display: inline !important;&quot;&gt;i = 0, j = 0, size - 1, i++&lt;/span&gt;" style="shape=hexagon;perimeter=hexagonPerimeter2;whiteSpace=wrap;html=1;fixedSize=1;labelPosition=center;verticalLabelPosition=middle;align=center;verticalAlign=middle;" vertex="1" parent="1">
          <mxGeometry x="330" y="280" width="140" height="60" as="geometry" />
        </mxCell>
        <mxCell id="0WIL8h1w6J6NO6AQZgoV-15" style="edgeStyle=orthogonalEdgeStyle;rounded=0;orthogonalLoop=1;jettySize=auto;html=1;exitX=0;exitY=0.5;exitDx=0;exitDy=0;" edge="1" parent="1" source="0WIL8h1w6J6NO6AQZgoV-11">
          <mxGeometry relative="1" as="geometry">
            <mxPoint x="280" y="430" as="targetPoint" />
          </mxGeometry>
        </mxCell>
        <mxCell id="0WIL8h1w6J6NO6AQZgoV-11" value="j++&lt;br&gt;newArraysRow[i] = arraysRow[i]" style="rounded=0;whiteSpace=wrap;html=1;" vertex="1" parent="1">
          <mxGeometry x="300" y="540" width="200" height="60" as="geometry" />
        </mxCell>
        <mxCell id="0WIL8h1w6J6NO6AQZgoV-24" value="" style="edgeStyle=orthogonalEdgeStyle;rounded=0;orthogonalLoop=1;jettySize=auto;html=1;" edge="1" parent="1" source="0WIL8h1w6J6NO6AQZgoV-17" target="0WIL8h1w6J6NO6AQZgoV-22">
          <mxGeometry relative="1" as="geometry" />
        </mxCell>
        <mxCell id="0WIL8h1w6J6NO6AQZgoV-17" value="newArraysRow" style="shape=document;whiteSpace=wrap;html=1;boundedLbl=1;" vertex="1" parent="1">
          <mxGeometry x="530" y="290" width="120" height="50" as="geometry" />
        </mxCell>
        <mxCell id="0WIL8h1w6J6NO6AQZgoV-22" value="final" style="ellipse;whiteSpace=wrap;html=1;" vertex="1" parent="1">
          <mxGeometry x="707" y="275" width="120" height="80" as="geometry" />
        </mxCell>
        <mxCell id="0WIL8h1w6J6NO6AQZgoV-27" value="" style="edgeStyle=orthogonalEdgeStyle;rounded=0;orthogonalLoop=1;jettySize=auto;html=1;" edge="1" parent="1" source="0WIL8h1w6J6NO6AQZgoV-25" target="0WIL8h1w6J6NO6AQZgoV-3">
          <mxGeometry relative="1" as="geometry" />
        </mxCell>
        <mxCell id="0WIL8h1w6J6NO6AQZgoV-25" value="start" style="ellipse;whiteSpace=wrap;html=1;" vertex="1" parent="1">
          <mxGeometry x="340" y="60" width="120" height="80" as="geometry" />
        </mxCell>
      </root>
    </mxGraphModel>
  </diagram>
</mxfile>
